<svg xmlns="http://www.w3.org/2000/svg" width="29" height="26.802" viewBox="0 0 29 26.802"><defs><style>.a{fill:#38383d;}</style></defs><g transform="translate(-11.4 -9.8)"><g transform="translate(11.4 9.8)"><path class="a" d="M7.424,37.6H34.376A1.013,1.013,0,0,0,35.4,36.578V13.722A1.013,1.013,0,0,0,34.376,12.7H29.305v-.874a1.024,1.024,0,0,0-2.048,0V12.7H14.718v-.874a1.024,1.024,0,1,0-2.048,0V12.7H7.424A1.013,1.013,0,0,0,6.4,13.722V36.6a1.024,1.024,0,0,0,1.024,1ZM8.448,14.747H12.67v.55a1.024,1.024,0,0,0,2.048,0v-.55H27.257v.55a1.024,1.024,0,1,0,2.048,0v-.55h4.071v2.648H8.448V14.747Zm0,4.7h24.9V35.579H8.448V19.443Z" transform="translate(-6.4 -10.8)"/><path class="a" d="M46.661,64.2H31.924a1.024,1.024,0,1,0,0,2.048H46.661a1.024,1.024,0,1,0,0-2.048Z" transform="translate(-24.78 -50.862)"/><path class="a" d="M39.293,84H31.924a1.024,1.024,0,1,0,0,2.048h7.369a1.024,1.024,0,1,0,0-2.048Z" transform="translate(-24.78 -65.716)"/></g></g></svg>