<svg xmlns="http://www.w3.org/2000/svg" xmlns:xlink="http://www.w3.org/1999/xlink" width="23.155" height="23.155" viewBox="0 0 23.155 23.155"><defs><style>.a{fill:url(#a);}</style><linearGradient id="a" x1="0.862" y1="0.102" x2="0" y2="1" gradientUnits="objectBoundingBox"><stop offset="0" stop-color="#58c0d6"/><stop offset="0.39" stop-color="#51c3d0"/><stop offset="1" stop-color="#43c9c4"/></linearGradient></defs><g transform="translate(0 0)"><path class="a" d="M21.189,13.865a.9.9,0,0,0-1.677.678l1.065,2.635-3.164-1.395a.9.9,0,0,0-.72,0,8.721,8.721,0,0,1-3.443.7c-4.842,0-8.1-3.791-8.1-7.333,0-4.043,3.632-7.333,8.1-7.333s8.1,3.289,8.1,7.333a7.376,7.376,0,0,1-.081,1.036.9.9,0,0,0,1.789.267,9.127,9.127,0,0,0,.1-1.3,8.742,8.742,0,0,0-2.93-6.492A10.279,10.279,0,0,0,13.251,0,10.28,10.28,0,0,0,6.277,2.65,8.791,8.791,0,0,0,3.383,8.363,7.312,7.312,0,0,0,0,14.45a7.017,7.017,0,0,0,1.387,4.193L.066,21.912a.9.9,0,0,0,1.2,1.167L5.079,21.4a8.608,8.608,0,0,0,3.017.537c.023,0,.045,0,.067,0a8.561,8.561,0,0,0,4.256-1.154,7.786,7.786,0,0,0,2.736-2.665,10.408,10.408,0,0,0,1.879-.522l4.853,2.139a.9.9,0,0,0,1.2-1.167ZM8.1,20.125l-.037,0a6.784,6.784,0,0,1-2.643-.54.9.9,0,0,0-.72,0l-2.118.934.683-1.69a.9.9,0,0,0-.15-.926,5.279,5.279,0,0,1-1.3-3.458A5.381,5.381,0,0,1,3.481,10.6a9.131,9.131,0,0,0,2.676,4.89,10.11,10.11,0,0,0,6.58,2.784A6.647,6.647,0,0,1,8.1,20.125Z" transform="translate(0 0)"/><g transform="translate(8.843 7.999)"><ellipse class="a" cx="1.126" cy="1.126" rx="1.126" ry="1.126" transform="translate(0)"/><ellipse class="a" cx="1.126" cy="1.126" rx="1.126" ry="1.126" transform="translate(3.377)"/><ellipse class="a" cx="1.126" cy="1.126" rx="1.126" ry="1.126" transform="translate(6.755)"/></g></g></svg>