<svg xmlns="http://www.w3.org/2000/svg" width="22.621" height="26.748" viewBox="0 0 22.621 26.748"><defs><style>.a{fill:#38383d;}</style></defs><g transform="translate(-39.5)"><g transform="translate(39.5)"><path class="a" d="M179.635,403.212a1.045,1.045,0,1,0,0-2.09h-2.09a1.045,1.045,0,1,0,0,2.09Z" transform="translate(-169.343 -380.166)"/><circle class="a" cx="1.045" cy="1.045" r="1.045" transform="translate(9.247 5.701)"/><path class="a" d="M56.949,16.567A1.045,1.045,0,0,0,55.9,17.612v4.957a2.092,2.092,0,0,1-2.09,2.09H43.679a2.092,2.092,0,0,1-2.09-2.09V4.179a2.092,2.092,0,0,1,2.09-2.09h.679a1.045,1.045,0,0,0,0-2.09h-.679A4.184,4.184,0,0,0,39.5,4.179V22.569a4.184,4.184,0,0,0,4.179,4.179H53.814a4.184,4.184,0,0,0,4.179-4.179V17.612A1.045,1.045,0,0,0,56.949,16.567Z" transform="translate(-39.5)"/><path class="a" d="M159.955.122h-2.09a7.122,7.122,0,0,0-7.366,6.83,6.406,6.406,0,0,0,1.186,3.72l-1.11,2.745a1.045,1.045,0,0,0,1.39,1.348l3.256-1.435a7.767,7.767,0,0,0,2.464.464,1.05,1.05,0,0,0,.18.015h2.09a7.128,7.128,0,0,0,7.366-6.844V6.952A7.122,7.122,0,0,0,159.955.122Zm5.276,6.844a5.041,5.041,0,0,1-5.276,4.754h-1.922a1.052,1.052,0,0,0-.167-.013,5.726,5.726,0,0,1-2.257-.469,1.045,1.045,0,0,0-.832,0l-1.3.573.37-.916a1.045,1.045,0,0,0-.173-1.069,4.395,4.395,0,0,1-1.085-2.878,5.036,5.036,0,0,1,5.276-4.741h2.09a5.036,5.036,0,0,1,5.276,4.741Z" transform="translate(-144.7 -0.116)"/><circle class="a" cx="1.045" cy="1.045" r="1.045" transform="translate(17.136 5.701)"/><circle class="a" cx="1.045" cy="1.045" r="1.045" transform="translate(13.165 5.701)"/></g></g></svg>