<svg xmlns="http://www.w3.org/2000/svg" width="20.833" height="23.289" viewBox="0 0 20.833 23.289"><defs><style>.a{fill:#38383d;}</style></defs><path class="a" d="M6.641,22.38a.91.91,0,0,1-.91.91H3.639A3.643,3.643,0,0,1,0,19.65V3.639A3.643,3.643,0,0,1,3.639,0H14.824a3.643,3.643,0,0,1,3.639,3.639V9.052a.91.91,0,1,1-1.819,0V3.639a1.822,1.822,0,0,0-1.819-1.819H3.639A1.822,1.822,0,0,0,1.819,3.639V19.65A1.822,1.822,0,0,0,3.639,21.47H5.731a.91.91,0,0,1,.91.91ZM14.824,6.368a.91.91,0,0,0-.91-.91H4.544a.91.91,0,0,0,0,1.819h9.37A.91.91,0,0,0,14.824,6.368ZM11.19,10.007a.91.91,0,0,0-.91-.91H4.544a.91.91,0,1,0,0,1.819H10.28A.91.91,0,0,0,11.19,10.007ZM4.544,12.736a.91.91,0,1,0,0,1.819H8.324a.91.91,0,1,0,0-1.819Zm15.872,9.876A1.821,1.821,0,0,1,19,23.289H10.114a1.839,1.839,0,0,1-1.8-2.217,6.38,6.38,0,0,1,3.576-4.5,3.548,3.548,0,1,1,5.326,0,6.339,6.339,0,0,1,1.384.868,6.411,6.411,0,0,1,2.173,3.542c.007.024.013.048.018.073a1.854,1.854,0,0,1-.379,1.552Zm-7.588-8.377a1.729,1.729,0,1,0,1.729-1.729A1.73,1.73,0,0,0,12.827,14.236Zm6.186,7.208v0a4.551,4.551,0,0,0-8.914,0,.023.023,0,0,0,.01.027H19a.044.044,0,0,0,.015-.026Zm0,0"/></svg>