<svg xmlns="http://www.w3.org/2000/svg" width="29" height="26.317" viewBox="0 0 29 26.317"><defs><style>.a{fill:#38383d;}</style></defs><g transform="translate(0 0)"><g transform="translate(0 0)"><path class="a" d="M273.268,262.986H248.553a2.144,2.144,0,0,0-2.141,2.142V280.3a2.145,2.145,0,0,0,2.141,2.145h13.7l7.418,6.586a1.092,1.092,0,0,0,1.817-.817v-5.77h1.78a2.147,2.147,0,0,0,2.144-2.145V265.128A2.146,2.146,0,0,0,273.268,262.986Zm-.04,17.271H270.4a1.092,1.092,0,0,0-1.092,1.092v4.432l-5.912-5.248a1.092,1.092,0,0,0-.725-.275H248.6V265.17h24.632Z" transform="translate(-246.412 -262.986)"/><g transform="translate(6.642 8.63)"><path class="a" d="M308.333,344.205a1.094,1.094,0,1,0-1.092-1.1v.009A1.088,1.088,0,0,0,308.333,344.205Z" transform="translate(-307.241 -342.017)"/><path class="a" d="M370.3,344.205a1.094,1.094,0,1,0-1.092-1.1v.009A1.088,1.088,0,0,0,370.3,344.205Z" transform="translate(-362.44 -342.017)"/><path class="a" d="M432.233,344.205a1.094,1.094,0,1,0-1.092-1.1v.009A1.088,1.088,0,0,0,432.233,344.205Z" transform="translate(-417.612 -342.017)"/></g></g></g></svg>