<svg xmlns="http://www.w3.org/2000/svg" width="23.344" height="25.686" viewBox="0 0 23.344 25.686"><defs><style>.a{fill:#38383d;}</style></defs><g transform="translate(0 0)"><path class="a" d="M44.137,47.052a.732.732,0,0,0,1.128,0l5.252-5.974a.577.577,0,0,0,.1-.133.081.081,0,0,0,.019-.044.5.5,0,0,1,.058-.111c0-.022,0-.044.019-.044.019-.044.019-.066.039-.111a.815.815,0,0,0,0-.354.182.182,0,0,0-.039-.111c0-.022,0-.044-.019-.044l-.058-.133s0-.022-.019-.022a.577.577,0,0,0-.1-.133l-5.252-5.974a.732.732,0,0,0-1.128,0,1,1,0,0,0,0,1.283l3.89,4.425H34.2a.915.915,0,0,0,0,1.814h13.83l-3.89,4.425A.938.938,0,0,0,44.137,47.052Z" transform="translate(-27.426 -27.582)"/><path class="a" d="M7.307,32.086H19.254a.9.9,0,0,0,.907-.907V22.263a.907.907,0,1,0-1.814,0v8.009H8.214V8.214H18.347v8.009a.907.907,0,0,0,1.814,0V7.307a.9.9,0,0,0-.907-.907H7.307a.9.9,0,0,0-.907.907V31.179A.926.926,0,0,0,7.307,32.086Z" transform="translate(-6.4 -6.4)"/></g></svg>