<svg xmlns="http://www.w3.org/2000/svg" width="168.674" height="65.5" viewBox="0 0 168.674 65.5">
  <g id="Grupo_1436" data-name="Grupo 1436" transform="translate(-381 -378.5)">
    <g id="Logotipo_versão_secundária" data-name="Logotipo_versão secundária" transform="translate(381 378.5)">
      <path id="Caminho_668" data-name="Caminho 668" d="M151.25,55.92a1.119,1.119,0,0,1-.767.288h-8.161a4.032,4.032,0,0,0,1.286,2.712,3.94,3.94,0,0,0,2.746,1.02,4.365,4.365,0,0,0,1.809-.323,4.63,4.63,0,0,0,1.229-.833,1.307,1.307,0,0,1,.671-.209.879.879,0,0,1,.663.279.906.906,0,0,1,.266.65,1.142,1.142,0,0,1-.462.881,5.436,5.436,0,0,1-1.787,1.138,5.845,5.845,0,0,1-2.271.462,6.7,6.7,0,0,1-3.3-.789,5.488,5.488,0,0,1-2.2-2.2,6.523,6.523,0,0,1-.776-3.2,7.085,7.085,0,0,1,.8-3.422,5.82,5.82,0,0,1,2.11-2.263,5.422,5.422,0,0,1,5.6-.022,5.8,5.8,0,0,1,2.088,2.11,5.976,5.976,0,0,1,.811,3.012A.976.976,0,0,1,151.25,55.92Zm-7.581-3.828a3.609,3.609,0,0,0-1.251,2.263h6.84v-.187a2.839,2.839,0,0,0-1.1-2.018,3.479,3.479,0,0,0-2.236-.789A3.625,3.625,0,0,0,143.669,52.093Z" transform="translate(-79.08 -27.824)" fill="#fff"/>
      <path id="Caminho_669" data-name="Caminho 669" d="M182.1,49.752a1.114,1.114,0,0,1,.314.824V60.641a1.1,1.1,0,0,1-.314.789,1.154,1.154,0,0,1-1.591.009,1.11,1.11,0,0,1-.3-.8v-.6a4.9,4.9,0,0,1-1.648,1.378,4.634,4.634,0,0,1-2.249.567,5.267,5.267,0,0,1-2.864-.811,5.567,5.567,0,0,1-2.018-2.263,7.606,7.606,0,0,1,0-6.513,5.629,5.629,0,0,1,2.005-2.263,5.311,5.311,0,0,1,5.092-.3,4.738,4.738,0,0,1,1.683,1.3v-.554a1.152,1.152,0,0,1,.3-.811,1.016,1.016,0,0,1,.789-.323A1.058,1.058,0,0,1,182.1,49.752Zm-3.592,9.634a3.778,3.778,0,0,0,1.321-1.53,5.287,5.287,0,0,0,0-4.381,3.874,3.874,0,0,0-1.321-1.543,3.378,3.378,0,0,0-1.936-.567,3.439,3.439,0,0,0-1.936.558,3.745,3.745,0,0,0-1.321,1.53,5.338,5.338,0,0,0,0,4.4,3.778,3.778,0,0,0,1.321,1.53,3.636,3.636,0,0,0,3.871,0Z" transform="translate(-96.289 -27.824)" fill="#fff"/>
      <path id="Caminho_670" data-name="Caminho 670" d="M215.082,49.757a1.114,1.114,0,0,1,.314.824v10.2a5.756,5.756,0,0,1-.8,3.143,4.8,4.8,0,0,1-2.167,1.866,7.579,7.579,0,0,1-3.082.6,8.81,8.81,0,0,1-2.167-.323,3.867,3.867,0,0,1-1.587-.671q-.719-.373-.719-.929a1.074,1.074,0,0,1,.092-.371.878.878,0,0,1,.859-.58,1.781,1.781,0,0,1,.65.139,8.708,8.708,0,0,0,2.9.719,4.086,4.086,0,0,0,2.842-.894,3.135,3.135,0,0,0,.985-2.446V59.788a4.007,4.007,0,0,1-1.635,1.552,4.87,4.87,0,0,1-2.424.65,5.471,5.471,0,0,1-2.921-.811,5.634,5.634,0,0,1-2.075-2.263,7.408,7.408,0,0,1,0-6.513,5.694,5.694,0,0,1,2.062-2.263,5.373,5.373,0,0,1,2.886-.811,5,5,0,0,1,2.376.58,5.08,5.08,0,0,1,1.726,1.412v-.741a1.152,1.152,0,0,1,.3-.811,1.016,1.016,0,0,1,.789-.323A1.054,1.054,0,0,1,215.082,49.757ZM211.407,59.4a3.7,3.7,0,0,0,1.378-1.53,4.852,4.852,0,0,0,.5-2.215,4.771,4.771,0,0,0-.5-2.2,3.842,3.842,0,0,0-1.378-1.53,3.706,3.706,0,0,0-2.018-.558,3.648,3.648,0,0,0-1.992.558,3.791,3.791,0,0,0-1.378,1.543,5.086,5.086,0,0,0,0,4.386A3.822,3.822,0,0,0,207.4,59.4a3.659,3.659,0,0,0,1.992.558A3.846,3.846,0,0,0,211.407,59.4Z" transform="translate(-114.728 -27.829)" fill="#fff"/>
      <path id="Caminho_671" data-name="Caminho 671" d="M240.739,55.312a1.069,1.069,0,0,1-.789.323,1.043,1.043,0,0,1-.776-.323,1.1,1.1,0,0,1-.314-.789V39.592a1.086,1.086,0,0,1,.323-.789,1.069,1.069,0,0,1,.789-.323,1.043,1.043,0,0,1,.776.323,1.1,1.1,0,0,1,.314.789V54.527A1.076,1.076,0,0,1,240.739,55.312Z" transform="translate(-134.736 -21.709)" fill="#fff"/>
      <g id="Grupo_1311" data-name="Grupo 1311" transform="translate(122.042 21.496)">
        <path id="Caminho_672" data-name="Caminho 672" d="M289.045,49.921q1.216.582,1.216,1.482a1.113,1.113,0,0,1-.253.706.8.8,0,0,1-.65.314,1.035,1.035,0,0,1-.475-.092,4.69,4.69,0,0,1-.475-.3,2.448,2.448,0,0,0-.44-.323,3.088,3.088,0,0,0-.789-.231,5.3,5.3,0,0,0-.929-.092,4.06,4.06,0,0,0-2.132.558,3.781,3.781,0,0,0-1.439,1.543,4.7,4.7,0,0,0-.51,2.193,4.772,4.772,0,0,0,.5,2.2,3.779,3.779,0,0,0,1.4,1.53,3.856,3.856,0,0,0,2.062.558,4.373,4.373,0,0,0,1.949-.371,4.514,4.514,0,0,0,.44-.3,2.628,2.628,0,0,1,.405-.279.91.91,0,0,1,.427-.092.952.952,0,0,1,.732.288,1.063,1.063,0,0,1,.266.754,1.294,1.294,0,0,1-.615.963,4.916,4.916,0,0,1-1.648.776,7.882,7.882,0,0,1-2.215.3,5.829,5.829,0,0,1-3.108-.824,5.531,5.531,0,0,1-2.075-2.271,7.074,7.074,0,0,1-.732-3.235,6.776,6.776,0,0,1,.767-3.235,5.7,5.7,0,0,1,2.132-2.271,5.95,5.95,0,0,1,3.13-.824A6.944,6.944,0,0,1,289.045,49.921Z" transform="translate(-279.96 -49.337)" fill="#68c1a6"/>
        <path id="Caminho_673" data-name="Caminho 673" d="M318.7,49.752a1.114,1.114,0,0,1,.314.824V60.641a1.1,1.1,0,0,1-.314.789,1.154,1.154,0,0,1-1.591.009,1.11,1.11,0,0,1-.3-.8v-.6a4.9,4.9,0,0,1-1.648,1.378,4.634,4.634,0,0,1-2.249.567,5.267,5.267,0,0,1-2.864-.811,5.567,5.567,0,0,1-2.018-2.263,7.606,7.606,0,0,1,0-6.513,5.629,5.629,0,0,1,2.005-2.263,5.311,5.311,0,0,1,5.092-.3,4.739,4.739,0,0,1,1.683,1.3v-.554a1.152,1.152,0,0,1,.3-.811,1.016,1.016,0,0,1,.789-.323A1.064,1.064,0,0,1,318.7,49.752Zm-3.6,9.634a3.778,3.778,0,0,0,1.321-1.53,5.286,5.286,0,0,0,0-4.381,3.874,3.874,0,0,0-1.321-1.543,3.378,3.378,0,0,0-1.936-.567,3.439,3.439,0,0,0-1.936.558,3.745,3.745,0,0,0-1.321,1.53,5.337,5.337,0,0,0,0,4.4,3.778,3.778,0,0,0,1.321,1.53,3.636,3.636,0,0,0,3.871,0Z" transform="translate(-295.381 -49.32)" fill="#68c1a6"/>
        <path id="Caminho_674" data-name="Caminho 674" d="M348.767,49.634a.929.929,0,0,1,.44.776,1.149,1.149,0,0,1-.288.846.96.96,0,0,1-.706.288,2.267,2.267,0,0,1-.628-.139,2.557,2.557,0,0,0-.767-.161,2.368,2.368,0,0,0-1.4.5,3.6,3.6,0,0,0-1.112,1.369,4.291,4.291,0,0,0-.427,1.936v5.589a1.1,1.1,0,0,1-.314.789,1.154,1.154,0,0,1-1.591.009,1.11,1.11,0,0,1-.3-.8V50.715a1.1,1.1,0,0,1,.314-.789,1.027,1.027,0,0,1,.776-.323,1.081,1.081,0,0,1,.8.323,1.1,1.1,0,0,1,.314.789V51.9a4.38,4.38,0,0,1,1.53-1.844,4.125,4.125,0,0,1,2.319-.732A1.775,1.775,0,0,1,348.767,49.634Z" transform="translate(-314.768 -49.32)" fill="#68c1a6"/>
        <path id="Caminho_675" data-name="Caminho 675" d="M371.83,55.92a1.119,1.119,0,0,1-.767.288H362.9a4.033,4.033,0,0,0,1.286,2.712,3.94,3.94,0,0,0,2.746,1.02,4.365,4.365,0,0,0,1.809-.323,4.63,4.63,0,0,0,1.229-.833,1.307,1.307,0,0,1,.671-.209.879.879,0,0,1,.663.279.906.906,0,0,1,.266.65,1.142,1.142,0,0,1-.462.881,5.436,5.436,0,0,1-1.787,1.138,5.845,5.845,0,0,1-2.271.462,6.7,6.7,0,0,1-3.3-.789,5.488,5.488,0,0,1-2.2-2.2,6.522,6.522,0,0,1-.776-3.2,7.085,7.085,0,0,1,.8-3.422,5.82,5.82,0,0,1,2.11-2.263,5.422,5.422,0,0,1,5.6-.022,5.8,5.8,0,0,1,2.088,2.11,5.976,5.976,0,0,1,.811,3.012A.961.961,0,0,1,371.83,55.92Zm-7.581-3.828A3.61,3.61,0,0,0,363,54.355h6.84v-.187a2.839,2.839,0,0,0-1.1-2.018,3.479,3.479,0,0,0-2.236-.789A3.625,3.625,0,0,0,364.249,52.093Z" transform="translate(-325.542 -49.32)" fill="#68c1a6"/>
      </g>
      <path id="Caminho_676" data-name="Caminho 676" d="M260.72,55.92a1.119,1.119,0,0,1-.767.288h-8.161a4.032,4.032,0,0,0,1.286,2.712,3.94,3.94,0,0,0,2.746,1.02,4.365,4.365,0,0,0,1.809-.323,4.63,4.63,0,0,0,1.229-.833,1.307,1.307,0,0,1,.671-.209.879.879,0,0,1,.663.279.906.906,0,0,1,.266.65,1.142,1.142,0,0,1-.462.881,5.436,5.436,0,0,1-1.787,1.138,5.846,5.846,0,0,1-2.271.462,6.7,6.7,0,0,1-3.3-.789,5.488,5.488,0,0,1-2.2-2.2,6.523,6.523,0,0,1-.776-3.2,7.085,7.085,0,0,1,.8-3.422,5.82,5.82,0,0,1,2.11-2.263,5.422,5.422,0,0,1,5.6-.022,5.8,5.8,0,0,1,2.088,2.11,5.976,5.976,0,0,1,.811,3.012A.992.992,0,0,1,260.72,55.92Zm-7.585-3.828a3.61,3.61,0,0,0-1.251,2.263h6.84v-.187a2.839,2.839,0,0,0-1.1-2.018,3.479,3.479,0,0,0-2.236-.789A3.643,3.643,0,0,0,253.134,52.093Z" transform="translate(-140.827 -27.824)" fill="#fff"/>
      <g id="Grupo_1313" data-name="Grupo 1313" transform="translate(0 0)">
        <path id="XMLID_787_" d="M13.591,42.85A16.345,16.345,0,0,1,9.942,35.6a28.841,28.841,0,0,0-3.828-.222,12.856,12.856,0,0,0,1.364,8.71c.074.126.148.248.227.371A39.617,39.617,0,0,1,13.591,42.85Z" transform="translate(-3.329 -19.959)" fill="#68c1a6" fill-rule="evenodd"/>
        <path id="XMLID_786_" d="M20.832,19.268a39.649,39.649,0,0,1,5.9,1.552,16.371,16.371,0,0,1,.466-8.1A29.677,29.677,0,0,0,24,10.61a12.864,12.864,0,0,0-3.174,8.226C20.823,18.98,20.828,19.124,20.832,19.268Z" transform="translate(-11.751 -5.989)" fill="#68c1a6" fill-rule="evenodd"/>
        <path id="XMLID_785_" d="M43.06,5.926a39.43,39.43,0,0,1,4.333,4.294,16.322,16.322,0,0,1,4.455-6.783A29.561,29.561,0,0,0,50.131.01a12.888,12.888,0,0,0-6.862,5.536Q43.158,5.73,43.06,5.926Z" transform="translate(-24.293 -0.01)" fill="#68c1a6" fill-rule="evenodd"/>
        <path id="XMLID_784_" d="M70.74,7.709a39.855,39.855,0,0,1,1.609,5.885A16.345,16.345,0,0,1,79.6,9.946a28.84,28.84,0,0,0,.222-3.828,12.87,12.87,0,0,0-8.706,1.369C70.988,7.557,70.862,7.631,70.74,7.709Z" transform="translate(-39.906 -3.333)" fill="#68c1a6" fill-rule="evenodd"/>
        <path id="XMLID_783_" d="M94.472,20.832a39.648,39.648,0,0,1-1.552,5.9,16.371,16.371,0,0,1,8.1.466A29.679,29.679,0,0,0,103.13,24,12.864,12.864,0,0,0,94.9,20.828C94.76,20.823,94.616,20.828,94.472,20.832Z" transform="translate(-52.417 -11.751)" fill="#68c1a6" fill-rule="evenodd"/>
        <path id="XMLID_782_" d="M107.814,43.06a39.428,39.428,0,0,1-4.294,4.333,16.322,16.322,0,0,1,6.783,4.455,29.561,29.561,0,0,0,3.426-1.718,12.888,12.888,0,0,0-5.536-6.862Q108.01,43.158,107.814,43.06Z" transform="translate(-58.396 -24.293)" fill="#68c1a6" fill-rule="evenodd"/>
        <path id="XMLID_781_" d="M109.285,70.74a39.855,39.855,0,0,1-5.885,1.609,16.345,16.345,0,0,1,3.649,7.25,28.84,28.84,0,0,0,3.828.222,12.856,12.856,0,0,0-1.364-8.71Z" transform="translate(-58.328 -39.906)" fill="#68c1a6" fill-rule="evenodd"/>
        <path id="XMLID_709_" d="M97.869,94.472a39.648,39.648,0,0,1-5.9-1.552,16.371,16.371,0,0,1-.466,8.1,29.681,29.681,0,0,0,3.2,2.106A12.864,12.864,0,0,0,97.873,94.9C97.878,94.76,97.873,94.616,97.869,94.472Z" transform="translate(-51.616 -52.417)" fill="#68c1a6" fill-rule="evenodd"/>
        <path id="XMLID_696_" d="M72.519,107.814a39.428,39.428,0,0,1-4.333-4.294A16.322,16.322,0,0,1,63.73,110.3a29.561,29.561,0,0,0,1.718,3.426,12.888,12.888,0,0,0,6.862-5.536Q72.42,108.01,72.519,107.814Z" transform="translate(-35.952 -58.396)" fill="#68c1a6" fill-rule="evenodd"/>
        <path id="XMLID_695_" d="M44.459,109.285A39.857,39.857,0,0,1,42.85,103.4a16.345,16.345,0,0,1-7.25,3.649,28.841,28.841,0,0,0-.222,3.828,12.856,12.856,0,0,0,8.71-1.364Z" transform="translate(-19.959 -58.328)" fill="#68c1a6" fill-rule="evenodd"/>
        <path id="XMLID_694_" d="M19.268,97.869a39.649,39.649,0,0,1,1.552-5.9,16.371,16.371,0,0,1-8.1-.466,29.678,29.678,0,0,0-2.106,3.2,12.864,12.864,0,0,0,8.226,3.174C18.98,97.878,19.124,97.873,19.268,97.869Z" transform="translate(-5.989 -51.616)" fill="#68c1a6" fill-rule="evenodd"/>
        <path id="XMLID_693_" d="M5.926,72.519a39.43,39.43,0,0,1,4.294-4.333A16.322,16.322,0,0,1,3.436,63.73,29.561,29.561,0,0,0,.01,65.448a12.861,12.861,0,0,0,5.532,6.862C5.669,72.383,5.795,72.453,5.926,72.519Z" transform="translate(-0.01 -35.952)" fill="#68c1a6" fill-rule="evenodd"/>
        <g id="XMLID_595_" transform="translate(6.212 6.212)">
          <path id="XMLID_692_" d="M24.594,75.98a38.809,38.809,0,0,0-4.8,4.468,14.8,14.8,0,0,0,7.376-.253c.541-1.251,1.151-2.5,1.827-3.736A26.851,26.851,0,0,1,24.594,75.98Z" transform="translate(-17.379 -49.074)" fill="#fff" fill-rule="evenodd"/>
          <path id="XMLID_691_" d="M14.26,59.439a14.821,14.821,0,0,0,6.517,3.47q1.641-1.223,3.448-2.324a26.807,26.807,0,0,1-3.57-2.616A38.6,38.6,0,0,0,14.26,59.439Z" transform="translate(-14.26 -38.915)" fill="#fff" fill-rule="evenodd"/>
          <path id="XMLID_690_" d="M21.92,37.02a14.846,14.846,0,0,0,3.906,6.264q2.034-.235,4.15-.288a26.908,26.908,0,0,1-1.783-4.05A38.363,38.363,0,0,0,21.92,37.02Z" transform="translate(-18.581 -27.098)" fill="#fff" fill-rule="evenodd"/>
          <path id="XMLID_689_" d="M40.264,19.79a14.846,14.846,0,0,0,.253,7.376q1.877.811,3.736,1.827a26.851,26.851,0,0,1,.48-4.4A38.5,38.5,0,0,0,40.264,19.79Z" transform="translate(-28.729 -17.379)" fill="#fff" fill-rule="evenodd"/>
          <path id="XMLID_688_" d="M57.65,20.777q1.223,1.641,2.324,3.448a26.807,26.807,0,0,1,2.616-3.57,38.5,38.5,0,0,0-1.469-6.4A14.825,14.825,0,0,0,57.65,20.777Z" transform="translate(-38.735 -14.26)" fill="#fff" fill-rule="evenodd"/>
          <path id="XMLID_687_" d="M81.824,21.92a14.846,14.846,0,0,0-6.264,3.906q.235,2.034.288,4.15a26.909,26.909,0,0,1,4.05-1.783A38.363,38.363,0,0,0,81.824,21.92Z" transform="translate(-48.837 -18.581)" fill="#fff" fill-rule="evenodd"/>
          <path id="XMLID_686_" d="M95.253,40.261a14.8,14.8,0,0,0-7.376.253q-.811,1.877-1.827,3.736a26.851,26.851,0,0,1,4.4.48A38.5,38.5,0,0,0,95.253,40.261Z" transform="translate(-54.754 -28.726)" fill="#fff" fill-rule="evenodd"/>
          <path id="XMLID_685_" d="M99.8,61.12a14.821,14.821,0,0,0-6.517-3.47q-1.641,1.223-3.448,2.324a26.807,26.807,0,0,1,3.57,2.616A38.6,38.6,0,0,0,99.8,61.12Z" transform="translate(-56.886 -38.735)" fill="#fff" fill-rule="evenodd"/>
          <path id="XMLID_599_" d="M94.606,81.824A14.846,14.846,0,0,0,90.7,75.56q-2.034.235-4.15.288a26.911,26.911,0,0,1,1.783,4.05A38.363,38.363,0,0,0,94.606,81.824Z" transform="translate(-55.036 -48.837)" fill="#fff" fill-rule="evenodd"/>
          <path id="XMLID_598_" d="M80.448,95.253a14.8,14.8,0,0,0-.253-7.376q-1.877-.811-3.736-1.827a26.851,26.851,0,0,1-.48,4.4A38.5,38.5,0,0,0,80.448,95.253Z" transform="translate(-49.074 -54.754)" fill="#fff" fill-rule="evenodd"/>
          <path id="XMLID_597_" d="M59.439,99.8a14.821,14.821,0,0,0,3.47-6.517q-1.223-1.641-2.324-3.448A26.807,26.807,0,0,1,57.97,93.4,38.6,38.6,0,0,0,59.439,99.8Z" transform="translate(-38.915 -56.886)" fill="#fff" fill-rule="evenodd"/>
          <path id="XMLID_596_" d="M37.02,94.606A14.846,14.846,0,0,0,43.284,90.7q-.235-2.034-.288-4.15a26.91,26.91,0,0,1-4.05,1.783A38.363,38.363,0,0,0,37.02,94.606Z" transform="translate(-27.098 -55.036)" fill="#fff" fill-rule="evenodd"/>
        </g>
      </g>
    </g>
    <g id="Grupo_1435" data-name="Grupo 1435" transform="translate(434.364 418.543)">
      <text id="Combate_ao_COVID-19" data-name="Combate ao
COVID-19" transform="translate(29.636 10.457)" fill="#fff" font-size="8" font-family="Quicksand-Medium, Quicksand" font-weight="500"><tspan x="0" y="0">Combate ao</tspan><tspan x="0" y="10">COVID-19</tspan></text>
      <g id="virus" transform="translate(0 0)">
        <g id="XMLID_107_" transform="translate(0 0)">
          <g id="Grupo_1432" data-name="Grupo 1432" transform="translate(0)">
            <path id="Caminho_677" data-name="Caminho 677" d="M25.883,15.7a2.226,2.226,0,0,1-1.922,2.426,2.05,2.05,0,0,1-2.055-1.208l-1.049.092-.792.382a.6.6,0,0,0-.331.459,6.984,6.984,0,0,1-.4,1.543.6.6,0,0,0,.034.507l.282.5.784.526a1.41,1.41,0,1,1-.891,1.512l-.869-.583-.547-.067a.63.63,0,0,0-.512.173,7.08,7.08,0,0,1-1.55,1.12.622.622,0,0,0-.326.512L15.671,24.7l.344,1.365a1.752,1.752,0,1,1-1.7.436l-.346-1.373-.534-.858a.782.782,0,0,0-.668-.366h0a7.075,7.075,0,0,1-1.367-.134.78.78,0,0,0-.72.226l-.705.744-.79,1.638a1.41,1.41,0,1,1-1.583-.75L8.4,23.985l.156-1.107a.588.588,0,0,0-.21-.539,7.1,7.1,0,0,1-1.6-1.831.586.586,0,0,0-.5-.281l-1.1-.011-1.21.38a1.973,1.973,0,1,1-.6-1.647l1.284-.4.938-.668a.483.483,0,0,0,.2-.434q-.023-.283-.024-.571a6.994,6.994,0,0,1,.64-2.93.481.481,0,0,0,0-.411l-.278-.568-.754-.569a1.41,1.41,0,1,1,.973-1.46l.836.63.842.15A7.053,7.053,0,0,1,10.1,10.362l.2-1.2-.25-1.241a2.022,2.022,0,0,1-1.5-1.51,1.976,1.976,0,0,1,1.637-2.318,2.089,2.089,0,0,1,2.46,1.541,1.918,1.918,0,0,1-.867,2.012l.236,1.17.579.923a.207.207,0,0,0,.175.1h0a6.989,6.989,0,0,1,3.625,1.009.2.2,0,0,0,.191.011l.906-.42,1.058-1.144a1.41,1.41,0,1,1,1.286,1.189l-1.058,1.144-.344.924a.2.2,0,0,0,.027.191,7,7,0,0,1,.98,1.9.6.6,0,0,0,.4.388l.86.241,1.118-.1a2.161,2.161,0,0,1,1.8-1.473A2.106,2.106,0,0,1,25.883,15.7Z" transform="translate(0 -4.053)" fill="#eb5569"/>
          </g>
        </g>
        <g id="XMLID_8_" transform="translate(7.556 7.609)">
          <g id="Grupo_1433" data-name="Grupo 1433">
            <circle id="Elipse_1" data-name="Elipse 1" cx="5.21" cy="5.21" r="5.21" fill="#f58a97"/>
          </g>
        </g>
        <path id="Caminho_678" data-name="Caminho 678" d="M143,151.673a5.212,5.212,0,0,1,4.416-5.15,5.21,5.21,0,1,0,0,10.3A5.212,5.212,0,0,1,143,151.673Z" transform="translate(-133.86 -138.854)" fill="#f07281"/>
        <g id="Grupo_1434" data-name="Grupo 1434" transform="translate(2.516 0.379)">
          <circle id="Elipse_2" data-name="Elipse 2" cx="1.484" cy="1.484" r="1.484" fill="#eb5569"/>
          <circle id="Elipse_3" data-name="Elipse 3" cx="0.98" cy="0.98" r="0.98" transform="translate(0.098 20.062)" fill="#eb5569"/>
          <circle id="Elipse_4" data-name="Elipse 4" cx="1.444" cy="1.444" r="1.444" transform="translate(17.629 21.209)" fill="#eb5569"/>
          <circle id="Elipse_5" data-name="Elipse 5" cx="1.346" cy="1.346" r="1.346" transform="translate(7.305 9.657)" fill="#eb5569"/>
          <circle id="Elipse_6" data-name="Elipse 6" cx="0.916" cy="0.916" r="0.916" transform="translate(8.816 14.267)" fill="#eb5569"/>
          <circle id="Elipse_7" data-name="Elipse 7" cx="0.769" cy="0.769" r="0.769" transform="translate(11.839 11.671)" fill="#eb5569"/>
        </g>
      </g>
    </g>
  </g>
</svg>
