<svg xmlns="http://www.w3.org/2000/svg" width="36.779" height="36.778" viewBox="0 0 36.779 36.778"><defs><style>.a{fill:#43C9C4;stroke:#43C9C4;stroke-width:0.25px;}</style></defs><g transform="translate(0.125 0.14)"><g transform="translate(0 0)"><path class="a" d="M36.2.314A1.07,1.07,0,0,0,35.047.077L.673,13.827A1.07,1.07,0,0,0,.6,15.782l13.555,6.574,6.574,13.555a1.07,1.07,0,0,0,.962.6h.038a1.07,1.07,0,0,0,.955-.672L36.437,1.468A1.07,1.07,0,0,0,36.2.314ZM3.716,14.914,31,4,14.741,20.261ZM21.6,32.8,16.253,21.774,32.515,5.512Z" transform="translate(0 -0.001)"/></g></g></svg>